<svg width="36" height="36" viewBox="0 0 36 36" fill="none" xmlns="http://www.w3.org/2000/svg">
<rect width="36" height="36" rx="18" fill="#EDC1F5"/>
<path fill-rule="evenodd" clip-rule="evenodd" d="M18.1293 9C13.0811 9 9 13.1808 9 18.353C9 22.4875 11.6149 25.9872 15.2424 27.2259C15.6959 27.319 15.8621 27.0246 15.8621 26.777C15.8621 26.5602 15.8471 25.8169 15.8471 25.0425C13.3075 25.6001 12.7787 23.9276 12.7787 23.9276C12.3706 22.8436 11.7659 22.565 11.7659 22.565C10.9347 21.9921 11.8264 21.9921 11.8264 21.9921C12.7484 22.054 13.2322 22.9521 13.2322 22.9521C14.0483 24.3766 15.3633 23.9741 15.8923 23.7263C15.9678 23.1224 16.2098 22.7043 16.4668 22.4721C14.4413 22.2553 12.3102 21.4501 12.3102 17.8574C12.3102 16.8354 12.6727 15.9992 13.2472 15.3489C13.1565 15.1167 12.8391 14.1565 13.338 12.8712C13.338 12.8712 14.1088 12.6234 15.8469 13.8313C16.5911 13.6266 17.3585 13.5224 18.1293 13.5215C18.9002 13.5215 19.686 13.6301 20.4116 13.8313C22.1499 12.6234 22.9207 12.8712 22.9207 12.8712C23.4196 14.1565 23.102 15.1167 23.0113 15.3489C23.6009 15.9992 23.9485 16.8354 23.9485 17.8574C23.9485 21.4501 21.8174 22.2397 19.7768 22.4721C20.1094 22.7663 20.3965 23.3236 20.3965 24.2064C20.3965 25.4606 20.3815 26.4672 20.3815 26.7768C20.3815 27.0246 20.5478 27.319 21.0012 27.226C24.6287 25.987 27.2436 22.4875 27.2436 18.353C27.2585 13.1808 23.1625 9 18.1293 9Z" fill="#501A60"/>
</svg>
