<svg width="36" height="36" viewBox="0 0 36 36" fill="none" xmlns="http://www.w3.org/2000/svg">
<rect width="36" height="36" rx="18" fill="#EDC1F5"/>
<path d="M26.1353 9H10.5891C9.84437 9 9.24219 9.58793 9.24219 10.3148V25.9252C9.24219 26.6521 9.84437 27.2436 10.5891 27.2436H26.1353C26.88 27.2436 27.4858 26.6521 27.4858 25.9288V10.3148C27.4858 9.58793 26.88 9 26.1353 9ZM14.6547 24.5463H11.9467V15.8378H14.6547V24.5463ZM13.3007 14.6512C12.4313 14.6512 11.7293 13.9493 11.7293 13.0834C11.7293 12.2176 12.4313 11.5156 13.3007 11.5156C14.1665 11.5156 14.8685 12.2176 14.8685 13.0834C14.8685 13.9457 14.1665 14.6512 13.3007 14.6512ZM24.7884 24.5463H22.084V20.3132C22.084 19.3048 22.0662 18.0042 20.6765 18.0042C19.269 18.0042 19.0552 19.1052 19.0552 20.2419V24.5463H16.3543V15.8378H18.9484V17.0279H18.984C19.3439 16.3438 20.2275 15.6204 21.5424 15.6204C24.2825 15.6204 24.7884 17.4234 24.7884 19.768V24.5463Z" fill="#501A60"/>
</svg>
